<?xml version="1.0" encoding="utf-8"?>
<!-- Generator: Adobe Illustrator 23.1.1, SVG Export Plug-In . SVG Version: 6.00 Build 0)  -->
<svg version="1.1" id="Ebene_1" xmlns="http://www.w3.org/2000/svg" xmlns:xlink="http://www.w3.org/1999/xlink" x="0px" y="0px"
	 width="200px" height="40px" viewBox="0 0 200 40" style="enable-background:new 0 0 200 40;" xml:space="preserve">
<style type="text/css">
	.st0{fill:#FFFFFF;}
	.st1{fill-rule:evenodd;clip-rule:evenodd;fill:#FFFFFF;}
</style>
<g>
	<polygon points="0,40 0,40 120,40 200,40 200,0 120,0 0,0 0,0 	"/>
	<g>
		<path class="st0" d="M5.7,31.3V17.8H9v13.5H5.7z"/>
		<path class="st0" d="M12,20.1v-2.6h3.3v2.6H12z M12,31.3v-9.9h3.3v9.9H12z"/>
		<path class="st0" d="M24.7,31.3v-5.9c0-0.6-0.1-1.2-0.6-1.5c-0.2-0.2-0.5-0.2-0.8-0.2c-1.2,0-1.6,1.1-1.7,1.4
			c-0.1,0.3-0.1,0.5-0.1,0.6v5.6h-3.2v-9.9h3.1v1.5c0.2-0.3,0.4-0.6,0.6-0.9c0.6-0.6,1.5-0.9,2.4-0.9c0.5,0,2.7,0.1,3.3,2.1
			c0.1,0.4,0.2,0.8,0.2,1.7v6.4L24.7,31.3L24.7,31.3z"/>
		<path class="st0" d="M37.4,31.3l-2-4l-1.1,1.2v2.7h-3.2V17.8h3.2v6.9l2.9-3.5h4l-3.5,3.7l3.6,6.2h-3.9V31.3z"/>
		<path class="st0" d="M52.6,30.1c0,1.3,0,2.4-0.7,3.5c-0.1,0.2-0.4,0.5-0.8,0.8c-0.7,0.5-1.9,0.9-3.8,0.9c-2.2,0-3.3-0.7-3.9-1.5
			c-0.6-0.7-0.6-1.3-0.6-1.7h3.3c0.2,0.4,0.5,0.8,1.4,0.8s1.6-0.4,1.9-1.3c0.1-0.3,0.1-0.6,0.1-0.9v-1c-0.1,0.1-0.2,0.3-0.4,0.5
			c-0.4,0.4-1.1,0.9-2.4,0.9c-0.3,0-1.1,0-1.9-0.5c-0.9-0.6-2.1-1.9-2.1-4.5c0-0.5,0-3,1.7-4.5c0.3-0.3,1.1-0.9,2.3-0.9
			c0.4,0,1.4,0.1,2.2,0.8c0.4,0.3,0.5,0.6,0.6,0.8v-1.3h3.1C52.6,21.3,52.6,30.1,52.6,30.1z M48.6,23.9c-0.3-0.2-0.6-0.3-0.9-0.3
			c-0.3,0-0.6,0.1-0.9,0.3c-0.7,0.5-0.9,1.5-0.9,2.3c0,1.1,0.4,2.5,1.8,2.5c0.2,0,0.6,0,0.9-0.3c0.7-0.5,0.9-1.6,0.9-2.3
			C49.4,26,49.5,24.6,48.6,23.9z"/>
		<path class="st0" d="M55.7,31.3v-9.9h3.2V23c0.2-0.5,0.4-0.7,0.6-0.9c0.9-1,2.3-1,2.7-1v3.3c-0.9,0-2.1-0.2-2.7,0.7
			C59,25.6,59,26.3,59,26.9v4.3L55.7,31.3L55.7,31.3z"/>
		<path class="st0" d="M73,29.9c-0.6,0.7-1.9,1.7-4.2,1.7c-0.8,0-3.4-0.1-4.8-2.5c-0.3-0.5-0.7-1.4-0.7-2.8c0-0.7,0.1-2.7,1.7-4.1
			c0.7-0.6,1.4-0.9,1.7-0.9c0.4-0.1,1-0.3,1.9-0.3c0.6,0,2.2,0,3.6,1.1c0.7,0.5,1.8,1.7,1.9,4C74.3,28,73.5,29.3,73,29.9z M70.7,25
			c-0.1-0.4-0.6-1.5-1.8-1.5c-0.4,0-0.7,0.1-0.9,0.2c-0.9,0.4-1.3,1.6-1.3,2.5c0,0.3,0,2.7,2.1,2.7c0.2,0,0.6,0,1-0.2
			c0.9-0.5,1.1-1.8,1-2.7C70.9,25.9,70.9,25.5,70.7,25z"/>
		<path class="st0" d="M83.2,31.3v-1.4c0,0.1-0.2,0.3-0.3,0.5c-0.4,0.5-1.3,1.2-2.8,1.2c-0.3,0-1,0-1.8-0.4c-1.3-0.7-1.5-2-1.6-3.4
			v-6.4H80v5.9c0,0.6,0,1.3,0.6,1.7c0.1,0.1,0.3,0.2,0.7,0.2c0.5,0,0.8-0.2,1-0.3c0.8-0.6,0.8-1.6,0.8-2.4v-5h3.2v9.9L83.2,31.3
			L83.2,31.3z"/>
		<path class="st0" d="M89.4,35.2V21.3h3.2v1.2c0.1-0.2,0.2-0.3,0.3-0.4c0.4-0.5,1.1-1.1,2.6-1.1c0.3,0,1.1,0,1.9,0.5
			c1.7,0.9,2.4,3.1,2.4,4.9c0,1.3-0.4,2.8-1.3,3.9c-0.4,0.4-0.8,0.7-1.3,1c-0.3,0.1-0.8,0.3-1.7,0.3c-1.8,0-2.5-0.9-3-1.4v5
			L89.4,35.2L89.4,35.2z M95.7,24c-0.2-0.2-0.5-0.4-1.1-0.4c-1.6,0-2,1.2-2,2.5s0.4,2,0.9,2.4c0.4,0.3,0.9,0.3,1.1,0.3
			c1.5,0,1.9-1.4,1.9-2.6C96.5,26.1,96.5,24.7,95.7,24z"/>
	</g>
	<rect x="120" y="0.5" class="st1" width="79.5" height="39"/>
</g>
</svg>
